<svg height="512" viewBox="0 0 512 512" width="512" xmlns="http://www.w3.org/2000/svg"><g id="_04_Ghost" data-name="04 Ghost"><g id="Glyph"><path d="m30.175 451.679c-24.417 0-36.733-20.186-26.688-41.012 14.043-29.123 60.272-40.938 74.723-15.911 13.971 24.2-16.71 56.923-48.035 56.923zm-12.275-34.062c-8.782 18.207 13.167 22.836 30.863 12.618 13.9-8.027 19.377-20.925 15.593-27.479-6.606-11.436-36.994-4.756-46.456 14.861z"/><path d="m142.416 512.21c-33.3 0-40.3-39.577-7.187-58.693 18.727-10.811 40.019-7.815 48.467 6.822 12.955 22.438-13.122 51.871-41.28 51.871zm15.775-49.069c-18.165 0-32.9 18.284-27.432 27.761 3.768 6.524 16.2 6.975 26.612.966 16.209-9.359 19.611-28.727.82-28.727z"/><path d="m283.094 434.668c8.305-19.43 37.853-26.086 48.012-8.487 6.549 11.341.149 25.9-12.429 33.161-22.384 12.921-44.324-4.219-35.583-24.674zm28.845-2.685c-9.5 0-16.672 9.5-14.34 13.544 1.536 2.658 7.454 3.2 13.078-.042 7.455-4.304 10.543-13.502 1.262-13.502z"/><path d="m272.72 44.768c-25.878 27.869-40.72 64.037-40.72 99.232 0 142.894-128 184.435-128 224 0 9.317 4.063 14.212 7.472 16.679 8.247 5.965 20.611 3.886 33.177.2l-.055-.118c65.694-30.915 70.471-56.42 81.126-44.97.034.1 5.3 6.311-.561 11.448a314.464 314.464 0 0 1 -55.971 38.952c7.445 35.592 58.44 10.735 87.627-14.758 5.617-4.906 11.33.548 11.053.435a7.981 7.981 0 0 1 -.282 11.555c-7.637 6.926-15.994 13.445-22.648 18.372 14.807 6.6 29.539-2.542 43.25-10.982 21.056-12.959 25.531-14.427 34.708-3.631 4.604 5.409 10.898 12.818 23.104 12.818 11.59 0 52.955-20.851 90.7-60.711 33.91-35.809 74.333-96.97 74.333-184.986-.003-142.384-149.191-209.51-238.313-113.535zm-29.729 289.332-11.644-10.974a149.447 149.447 0 0 0 9.914-11.471l12.744 9.673a164.106 164.106 0 0 1 -11.014 12.772zm133.009-142.1c-13.458 0-24-14.056-24-32s10.542-32 24-32 24 14.056 24 32-10.542 32-24 32zm80 0c-13.458 0-24-14.056-24-32s10.542-32 24-32 24 14.056 24 32-10.542 32-24 32z"/></g></g></svg>