<svg id="Capa_1" enable-background="new 0 0 512 512" height="512" viewBox="0 0 512 512" width="512" xmlns="http://www.w3.org/2000/svg"><g><g><path d="m494.537 260.65-111.98-82.66c-11.35-22.522 8.376-53.544 32.3-42.69l87.71 117.27c3.96 5.31-2.7 12.01-8.03 8.08z" fill="#ff8f71"/><path d="m414.857 135.301c-17.17 4.52-32.38 21.26-32.3 42.69l-34.63-25.57 16.25-40.44 24.87-11.2z" fill="#ff6e42"/><path d="m380.697 123.431c-5.71 10.92-14.69 19.89-25.61 25.61-36.55 19.13-73.09 9.67-94.98-13.7-5.55-5.92-15.61-2.6-16.67 5.45-9.47 71.85 67.76 175.25 52.5 260.57-1.98 11.1-5.05 22.84-9.19 34.99-123.134-85.204-113.589-335.87-26.76-420.879 18.57-6.8 37.67-9.11 55.31-7.46 54.55-.001 95.6 57.729 65.4 115.419z" fill="#f3f5fc"/><path d="m286.747 436.35c-5.31 15.52-12.38 31.72-21.25 48.09-6.69 12.35-19.62 20.06-33.67 20.06h-40.03s-81.99-17.63-112.14-42.69c-25.25-20.99 21.96-95.05 30.91-101.9 23.66-18.1 47.64-31.74 70.23-40.23-54.59-186.97 8.44-278.269 79.19-304.209-77.39 116.64-77.54 294.039 26.76 420.879z" fill="#d7ddf5"/><path d="m191.793 504.5c22.484-29.369 37.855-60.263 49.143-90.707 2.508-6.763-5.288-12.676-11.079-8.375-30.602 22.728-70.584 43.824-108.487 56.081-14.479 4.682-29.548-5.229-30.859-20.389-3.783-43.754 20.058-81.195 20.059-81.197-18.99 14.527-37.767 31.92-55.432 51.845-17.132 19.323-31.781 39.399-43.728 59.377-8.79 14.697 1.7 33.366 18.826 33.366h161.557z" fill="#525e77"/><ellipse cx="312.411" cy="100.48" fill="#ffa1ac" rx="23.377" ry="29.355" transform="matrix(.275 -.962 .962 .275 129.977 373.271)"/></g><g><path d="m335.095 90.793c3.263 0 6.267-2.147 7.208-5.442l3.298-11.545c1.138-3.982-1.168-8.134-5.151-9.272-3.979-1.137-8.134 1.168-9.272 5.151l-3.298 11.545c-1.424 4.697 2.33 9.63 7.215 9.563z"/><path d="m508.718 247.933-111.612-149.245c3.414-19.246.311-38.456-9.341-55.274-14.488-25.246-42.106-41.796-72.076-43.192-19.896-.927-37.123 1.035-52.662 5.996-3.946 1.26-6.123 5.48-4.863 9.426s5.48 6.123 9.426 4.863c13.811-4.41 29.317-6.143 47.401-5.302 24.902 1.16 47.802 14.83 59.765 35.675 8.334 14.522 10.705 30.809 7.239 47.349-3.651 17.426-13.725 35.49-30.324 43.955-30.6 15.604-64.221 11.148-86.081-12.187-4.553-4.861-11.348-6.606-17.734-4.554-6.436 2.067-10.98 7.49-11.858 14.153-4.665 35.379 10.039 76.411 25.607 119.852 17.09 47.69 34.762 97.004 26.977 140.533-4.56 25.495-14.819 53.459-29.67 80.871-5.396 9.961-15.781 16.148-27.102 16.148h-25.319c16.644-23.957 30.279-50.475 41.469-80.654 2.295-6.19.291-13.01-4.988-16.969-5.254-3.94-12.328-3.958-17.602-.04-30.755 22.842-70.526 43.403-106.388 54.999-4.747 1.535-9.843.84-13.979-1.904-4.1-2.72-6.694-7.097-7.119-12.007-3.195-36.95 14.908-69.759 18.365-75.639 22.164-16.816 44.953-29.852 67.142-38.196 3.671-1.381 5.659-5.357 4.56-9.122-55.689-190.737 16.225-261.351 49.729-282.858 3.486-2.237 4.498-6.877 2.26-10.363-2.238-3.487-6.878-4.498-10.363-2.26-23.829 15.296-55.23 45.579-69.503 102.982-13.028 52.396-9.127 116.329 11.592 190.122-41.757 17.213-84.924 49.524-122.26 91.635-17.074 19.258-32.074 39.625-44.582 60.537-5.551 9.28-5.686 20.425-.362 29.813 5.299 9.345 14.883 14.924 25.635 14.924h20.318c4.142 0 7.5-3.358 7.5-7.5s-3.358-7.5-7.5-7.5h-20.318c-5.282 0-9.987-2.737-12.587-7.323-2.625-4.628-2.555-10.129.188-14.714 12.031-20.113 26.475-39.723 42.932-58.286 9.513-10.73 19.404-20.787 29.544-30.083-5.009 15.041-9.03 34.348-7.234 55.123.821 9.49 5.839 17.951 13.769 23.213 7.967 5.286 17.769 6.627 26.889 3.678 37.04-11.978 78.074-33.134 110.01-56.704-12.05 32.303-26.997 60.182-45.602 85.095h-102.569c-4.142 0-7.5 3.358-7.5 7.5s3.358 7.5 7.5 7.5h146.373c16.832 0 32.27-9.197 40.291-24.002 15.603-28.802 26.407-58.324 31.246-85.376 8.489-47.466-9.869-98.694-27.622-148.234-14.938-41.682-29.047-81.053-24.857-112.83.159-1.206 1.055-1.666 1.574-1.833.597-.192 1.464-.257 2.199.528 23.775 25.38 58.912 32.829 92.222 20.452l143.363 105.833c5.386 3.982 12.503 3.482 17.276-1.321 4.752-4.779 5.251-11.886 1.216-17.283zm-146.464-94.513c13.889-8.168 24.033-21.596 29.681-36.599l97.69 130.628z"/></g></g></svg>